<svg width="107" height="15" viewBox="0 0 107 15" fill="none" xmlns="http://www.w3.org/2000/svg">
<g id="design systems">
<path d="M3.22883 3.36997C3.68032 3.36997 4.08165 3.47135 4.43281 3.6741C4.78396 3.87225 5.06899 4.14873 5.2879 4.50355V0.909284H7.26487V11.0838H5.36999V10.0401C5.0918 10.4871 4.77484 10.8119 4.41912 11.0147C4.0634 11.2174 3.62104 11.3188 3.09202 11.3188C2.22096 11.3188 1.48672 10.964 0.889297 10.2544C0.296432 9.54012 0 8.62543 0 7.51029C0 6.22465 0.291872 5.21318 0.875616 4.4759C1.46392 3.73861 2.24833 3.36997 3.22883 3.36997ZM3.65296 9.65993C4.20478 9.65993 4.62435 9.45257 4.91166 9.03785C5.19897 8.62313 5.34262 8.08629 5.34262 7.42734C5.34262 6.50574 5.11232 5.84679 4.65171 5.4505C4.36896 5.21088 4.0406 5.09107 3.66664 5.09107C3.09658 5.09107 2.67701 5.30995 2.40794 5.74772C2.14343 6.18087 2.01118 6.72001 2.01118 7.36513C2.01118 8.06095 2.14571 8.61852 2.41478 9.03785C2.68841 9.45257 3.10114 9.65993 3.65296 9.65993Z" fill="white"/>
<path d="M12.1251 4.97357C11.6736 4.97357 11.3224 5.11642 11.0716 5.40211C10.8253 5.68781 10.6703 6.07489 10.6064 6.56334H13.6369C13.605 6.04263 13.4476 5.64864 13.1649 5.38138C12.8867 5.1095 12.5401 4.97357 12.1251 4.97357ZM12.1251 3.34924C12.7453 3.34924 13.304 3.46674 13.8011 3.70175C14.2982 3.93676 14.7086 4.30771 15.0324 4.81459C15.3243 5.26157 15.5135 5.77997 15.6002 6.3698C15.6504 6.7154 15.6709 7.21307 15.6618 7.8628H10.5586C10.5859 8.61852 10.8208 9.14844 11.2632 9.45257C11.5322 9.6415 11.856 9.73596 12.2345 9.73596C12.6359 9.73596 12.9619 9.62076 13.2128 9.39036C13.3496 9.26595 13.4704 9.09314 13.5753 8.87196H15.566C15.5158 9.31894 15.2855 9.77283 14.8751 10.2336C14.2366 10.9663 13.3427 11.3326 12.1935 11.3326C11.2449 11.3326 10.4081 11.0239 9.68294 10.4064C8.95782 9.78896 8.59526 8.78441 8.59526 7.39278C8.59526 6.08871 8.92134 5.08877 9.57349 4.39295C10.2302 3.69714 11.0807 3.34924 12.1251 3.34924Z" fill="white"/>
<path d="M18.6408 8.67842C18.6818 9.02863 18.7707 9.27747 18.9076 9.42492C19.1493 9.68758 19.5962 9.81891 20.2483 9.81891C20.6314 9.81891 20.9347 9.76131 21.1582 9.64611C21.3862 9.53091 21.5002 9.35811 21.5002 9.1277C21.5002 8.90652 21.409 8.73833 21.2266 8.62313C21.0441 8.50793 20.3669 8.30978 19.1949 8.02869C18.3512 7.81672 17.756 7.55176 17.4094 7.2338C17.0628 6.92046 16.8895 6.46887 16.8895 5.87904C16.8895 5.18323 17.1586 4.58649 17.6967 4.08882C18.2394 3.58655 19.001 3.33541 19.9816 3.33541C20.9119 3.33541 21.6689 3.52434 22.2527 3.9022C22.841 4.27545 23.1785 4.92288 23.2651 5.84448H21.3155C21.2881 5.59104 21.2174 5.39059 21.1034 5.24314C20.8891 4.97587 20.5243 4.84224 20.0089 4.84224C19.5848 4.84224 19.2815 4.90905 19.0991 5.04269C18.9212 5.17632 18.8323 5.33299 18.8323 5.51271C18.8323 5.7385 18.9281 5.90208 19.1196 6.00346C19.3112 6.10945 19.9884 6.29146 21.1513 6.54951C21.9266 6.73383 22.5081 7.01262 22.8957 7.38587C23.2788 7.76373 23.4703 8.23605 23.4703 8.80284C23.4703 9.54934 23.1944 10.1599 22.6426 10.6345C22.0953 11.1045 21.2471 11.3396 20.0978 11.3396C18.9258 11.3396 18.0593 11.0907 17.4984 10.5931C16.942 10.0908 16.6638 9.45257 16.6638 8.67842H18.6408Z" fill="white"/>
<path d="M27.065 2.65112H25.088V0.833252H27.065V2.65112ZM25.088 3.54969H27.065V11.0838H25.088V3.54969Z" fill="white"/>
<path d="M32.3015 9.4664C32.7575 9.4664 33.1429 9.29359 33.4576 8.94799C33.7722 8.59778 33.9296 8.04251 33.9296 7.28219C33.9296 6.56794 33.7791 6.0242 33.4781 5.65095C33.1816 5.2777 32.7826 5.09107 32.2809 5.09107C31.5969 5.09107 31.1249 5.41594 30.8649 6.06567C30.7281 6.41127 30.6597 6.83751 30.6597 7.3444C30.6597 7.78216 30.7327 8.17154 30.8786 8.51253C31.1431 9.14844 31.6174 9.4664 32.3015 9.4664ZM31.8158 3.36997C32.1897 3.36997 32.5158 3.42757 32.794 3.54277C33.2683 3.74092 33.6514 4.10495 33.9432 4.63488V3.54969H35.8381V10.6967C35.8381 11.669 35.6762 12.4017 35.3524 12.8948C34.7961 13.7426 33.7289 14.1666 32.151 14.1666C31.1978 14.1666 30.4203 13.9777 29.8183 13.5998C29.2163 13.2219 28.8834 12.6575 28.8195 11.9063H30.9402C30.9949 12.1367 31.0838 12.3026 31.2069 12.404C31.4167 12.5837 31.7702 12.6736 32.2673 12.6736C32.9696 12.6736 33.4393 12.4363 33.6765 11.9616C33.8315 11.6575 33.909 11.146 33.909 10.4272V9.94333C33.7221 10.2659 33.5214 10.5078 33.3071 10.6691C32.9194 10.9686 32.4155 11.1184 31.7953 11.1184C30.8375 11.1184 30.0714 10.7797 29.4968 10.1023C28.9267 9.42031 28.6417 8.49871 28.6417 7.33749C28.6417 6.21773 28.9176 5.2777 29.4694 4.51737C30.0212 3.75244 30.8033 3.36997 31.8158 3.36997Z" fill="white"/>
<path d="M41.9365 3.36997C42.7072 3.36997 43.3366 3.57503 43.8246 3.98514C44.3171 4.39065 44.5634 5.06573 44.5634 6.01037V11.0838H42.5659V6.50113C42.5659 6.10484 42.5134 5.80071 42.4085 5.58874C42.217 5.20166 41.8522 5.00813 41.314 5.00813C40.6527 5.00813 40.199 5.29152 39.9527 5.85831C39.825 6.15783 39.7612 6.5403 39.7612 7.00571V11.0838H37.8184V3.56351H39.6996V4.66252C39.9504 4.27545 40.1876 3.99666 40.411 3.82617C40.8124 3.52204 41.3209 3.36997 41.9365 3.36997Z" fill="white"/>
<path d="M52.0674 8.67842C52.1084 9.02863 52.1974 9.27747 52.3342 9.42492C52.5759 9.68758 53.0228 9.81891 53.675 9.81891C54.0581 9.81891 54.3613 9.76131 54.5848 9.64611C54.8128 9.53091 54.9268 9.35811 54.9268 9.1277C54.9268 8.90652 54.8356 8.73833 54.6532 8.62313C54.4708 8.50793 53.7935 8.30978 52.6215 8.02869C51.7778 7.81672 51.1827 7.55176 50.8361 7.2338C50.4895 6.92046 50.3162 6.46887 50.3162 5.87904C50.3162 5.18323 50.5852 4.58649 51.1234 4.08882C51.6661 3.58655 52.4277 3.33541 53.4082 3.33541C54.3385 3.33541 55.0956 3.52434 55.6793 3.9022C56.2676 4.27545 56.6051 4.92288 56.6917 5.84448H54.7421C54.7148 5.59104 54.6441 5.39059 54.5301 5.24314C54.3157 4.97587 53.9509 4.84224 53.4356 4.84224C53.0114 4.84224 52.7081 4.90905 52.5257 5.04269C52.3479 5.17632 52.2589 5.33299 52.2589 5.51271C52.2589 5.7385 52.3547 5.90208 52.5463 6.00346C52.7378 6.10945 53.415 6.29146 54.578 6.54951C55.3532 6.73383 55.9347 7.01262 56.3223 7.38587C56.7054 7.76373 56.897 8.23605 56.897 8.80284C56.897 9.54934 56.6211 10.1599 56.0692 10.6345C55.522 11.1045 54.6737 11.3396 53.5245 11.3396C52.3524 11.3396 51.4859 11.0907 50.925 10.5931C50.3686 10.0908 50.0904 9.45257 50.0904 8.67842H52.0674Z" fill="white"/>
<path d="M58.7883 12.5284L59.0346 12.5423C59.2261 12.5515 59.4085 12.5446 59.5818 12.5215C59.7551 12.4985 59.9011 12.4455 60.0196 12.3625C60.1336 12.2842 60.2385 12.1206 60.3343 11.8718C60.4346 11.623 60.4757 11.4709 60.4574 11.4156L57.7211 3.54969H59.8897L61.5178 9.10697L63.0569 3.54969H65.1297L62.5712 10.9594C62.0787 12.3879 61.6888 13.2726 61.4015 13.6136C61.1142 13.9592 60.5395 14.132 59.6776 14.132C59.5043 14.132 59.3652 14.1297 59.2603 14.1251C59.1554 14.1251 58.9981 14.1182 58.7883 14.1044V12.5284Z" fill="white"/>
<path d="M67.9445 8.67842C67.9855 9.02863 68.0745 9.27747 68.2113 9.42492C68.453 9.68758 68.8999 9.81891 69.5521 9.81891C69.9352 9.81891 70.2384 9.76131 70.4619 9.64611C70.6899 9.53091 70.8039 9.35811 70.8039 9.1277C70.8039 8.90652 70.7127 8.73833 70.5303 8.62313C70.3479 8.50793 69.6707 8.30978 68.4986 8.02869C67.6549 7.81672 67.0598 7.55176 66.7132 7.2338C66.3666 6.92046 66.1933 6.46887 66.1933 5.87904C66.1933 5.18323 66.4623 4.58649 67.0005 4.08882C67.5432 3.58655 68.3048 3.33541 69.2853 3.33541C70.2156 3.33541 70.9727 3.52434 71.5564 3.9022C72.1447 4.27545 72.4822 4.92288 72.5688 5.84448H70.6192C70.5919 5.59104 70.5212 5.39059 70.4072 5.24314C70.1928 4.97587 69.828 4.84224 69.3127 4.84224C68.8885 4.84224 68.5853 4.90905 68.4028 5.04269C68.225 5.17632 68.136 5.33299 68.136 5.51271C68.136 5.7385 68.2318 5.90208 68.4234 6.00346C68.6149 6.10945 69.2921 6.29146 70.4551 6.54951C71.2303 6.73383 71.8118 7.01262 72.1994 7.38587C72.5825 7.76373 72.7741 8.23605 72.7741 8.80284C72.7741 9.54934 72.4982 10.1599 71.9463 10.6345C71.3991 11.1045 70.5508 11.3396 69.4016 11.3396C68.2295 11.3396 67.363 11.0907 66.8021 10.5931C66.2457 10.0908 65.9675 9.45257 65.9675 8.67842H67.9445Z" fill="white"/>
<path d="M73.5982 5.02195V3.61881H74.638V1.51754H76.5671V3.61881H77.7779V5.02195H76.5671V9.00329C76.5671 9.31203 76.6059 9.50556 76.6834 9.5839C76.7609 9.65763 76.9981 9.69449 77.3949 9.69449C77.4541 9.69449 77.5157 9.69449 77.5796 9.69449C77.648 9.68988 77.7141 9.68528 77.7779 9.68067V11.1529L76.8544 11.1875C75.9332 11.2198 75.3039 11.0585 74.9664 10.7037C74.7475 10.4779 74.638 10.13 74.638 9.65993V5.02195H73.5982Z" fill="white"/>
<path d="M82.1114 4.97357C81.6599 4.97357 81.3088 5.11642 81.0579 5.40211C80.8117 5.68781 80.6566 6.07489 80.5928 6.56334H83.6232C83.5913 6.04263 83.434 5.64864 83.1512 5.38138C82.873 5.1095 82.5264 4.97357 82.1114 4.97357ZM82.1114 3.34924C82.7316 3.34924 83.2903 3.46674 83.7874 3.70175C84.2845 3.93676 84.6949 4.30771 85.0187 4.81459C85.3106 5.26157 85.4999 5.77997 85.5865 6.3698C85.6367 6.7154 85.6572 7.21307 85.6481 7.8628H80.5449C80.5723 8.61852 80.8071 9.14844 81.2495 9.45257C81.5186 9.6415 81.8423 9.73596 82.2209 9.73596C82.6222 9.73596 82.9483 9.62076 83.1991 9.39036C83.3359 9.26595 83.4568 9.09314 83.5617 8.87196H85.5523C85.5022 9.31894 85.2718 9.77283 84.8614 10.2336C84.2229 10.9663 83.3291 11.3326 82.1798 11.3326C81.2312 11.3326 80.3944 11.0239 79.6693 10.4064C78.9442 9.78896 78.5816 8.78441 78.5816 7.39278C78.5816 6.08871 78.9077 5.08877 79.5598 4.39295C80.2165 3.69714 81.0671 3.34924 82.1114 3.34924Z" fill="white"/>
<path d="M95.4405 3.3838C95.7688 3.3838 96.0926 3.44831 96.4119 3.57733C96.7311 3.70636 97.0207 3.93215 97.2806 4.25471C97.4904 4.51737 97.6318 4.83993 97.7048 5.2224C97.7504 5.47584 97.7732 5.84679 97.7732 6.33524L97.7595 11.0838H95.762V6.28685C95.762 6.00116 95.7164 5.76615 95.6252 5.58183C95.4519 5.23162 95.1327 5.05651 94.6675 5.05651C94.1293 5.05651 93.7577 5.2823 93.5524 5.73389C93.4475 5.97351 93.3951 6.26151 93.3951 6.5979V11.0838H91.4318V6.5979C91.4318 6.15092 91.3862 5.82605 91.295 5.6233C91.1308 5.25926 90.8093 5.07725 90.3304 5.07725C89.7741 5.07725 89.4001 5.25926 89.2086 5.6233C89.1037 5.83066 89.0512 6.1394 89.0512 6.54951V11.0838H87.0742V3.56351H88.9691V4.66252C89.2108 4.27084 89.4389 3.99206 89.6532 3.82617C90.0317 3.53125 90.522 3.3838 91.124 3.3838C91.694 3.3838 92.1546 3.51052 92.5058 3.76396C92.7886 3.99897 93.0029 4.30079 93.1488 4.66944C93.4042 4.22707 93.7212 3.9022 94.0997 3.69484C94.501 3.48748 94.948 3.3838 95.4405 3.3838Z" fill="white"/>
<path d="M101.231 8.67842C101.272 9.02863 101.361 9.27747 101.498 9.42492C101.74 9.68758 102.186 9.81891 102.839 9.81891C103.222 9.81891 103.525 9.76131 103.748 9.64611C103.976 9.53091 104.09 9.35811 104.09 9.1277C104.09 8.90652 103.999 8.73833 103.817 8.62313C103.634 8.50793 102.957 8.30978 101.785 8.02869C100.941 7.81672 100.346 7.55176 99.9997 7.2338C99.6531 6.92046 99.4798 6.46887 99.4798 5.87904C99.4798 5.18323 99.7489 4.58649 100.287 4.08882C100.83 3.58655 101.591 3.33541 102.572 3.33541C103.502 3.33541 104.259 3.52434 104.843 3.9022C105.431 4.27545 105.769 4.92288 105.855 5.84448H103.906C103.878 5.59104 103.808 5.39059 103.694 5.24314C103.479 4.97587 103.115 4.84224 102.599 4.84224C102.175 4.84224 101.872 4.90905 101.689 5.04269C101.512 5.17632 101.423 5.33299 101.423 5.51271C101.423 5.7385 101.518 5.90208 101.71 6.00346C101.901 6.10945 102.579 6.29146 103.742 6.54951C104.517 6.73383 105.098 7.01262 105.486 7.38587C105.869 7.76373 106.061 8.23605 106.061 8.80284C106.061 9.54934 105.785 10.1599 105.233 10.6345C104.686 11.1045 103.837 11.3396 102.688 11.3396C101.516 11.3396 100.65 11.0907 100.089 10.5931C99.5322 10.0908 99.2541 9.45257 99.2541 8.67842H101.231Z" fill="white"/>
</g>
</svg>
